<svg id="visual" viewBox="0 0 900 600" width="900" height="600" xmlns="http://www.w3.org/2000/svg" xmlns:xlink="http://www.w3.org/1999/xlink" version="1.1"><path d="M0 434L129 373L257 401L386 357L514 417L643 365L771 401L900 413L900 601L771 601L643 601L514 601L386 601L257 601L129 601L0 601Z" fill="#b90101"></path><path d="M0 416L129 425L257 406L386 399L514 476L643 452L771 406L900 455L900 601L771 601L643 601L514 601L386 601L257 601L129 601L0 601Z" fill="#c92d00"></path><path d="M0 438L129 483L257 438L386 493L514 457L643 510L771 497L900 497L900 601L771 601L643 601L514 601L386 601L257 601L129 601L0 601Z" fill="#d84701"></path><path d="M0 507L129 541L257 540L386 526L514 515L643 532L771 510L900 508L900 601L771 601L643 601L514 601L386 601L257 601L129 601L0 601Z" fill="#e75d04"></path><path d="M0 538L129 546L257 542L386 568L514 561L643 532L771 556L900 542L900 601L771 601L643 601L514 601L386 601L257 601L129 601L0 601Z" fill="#f5730a"></path></svg>