<svg id="visual" viewBox="0 0 900 600" width="900" height="600" xmlns="http://www.w3.org/2000/svg" xmlns:xlink="http://www.w3.org/1999/xlink" version="1.1"><path d="M0 526L4.8 522.8C9.7 519.7 19.3 513.3 29 511.5C38.7 509.7 48.3 512.3 58 514.3C67.7 516.3 77.3 517.7 87 514C96.7 510.3 106.3 501.7 116 499.5C125.7 497.3 135.3 501.7 145 505.2C154.7 508.7 164.3 511.3 174 512.7C183.7 514 193.3 514 203 510.8C212.7 507.7 222.3 501.3 232 498.2C241.7 495 251.3 495 261 496.7C270.7 498.3 280.3 501.7 290 501.5C299.7 501.3 309.3 497.7 319 497C328.7 496.3 338.3 498.7 348 502C357.7 505.3 367.3 509.7 377 513.5C386.7 517.3 396.3 520.7 406 522.7C415.7 524.7 425.3 525.3 435.2 520C445 514.7 455 503.3 464.8 501.2C474.7 499 484.3 506 494 507.3C503.7 508.7 513.3 504.3 523 503.7C532.7 503 542.3 506 552 508.5C561.7 511 571.3 513 581 510.3C590.7 507.7 600.3 500.3 610 499.7C619.7 499 629.3 505 639 509.2C648.7 513.3 658.3 515.7 668 513.8C677.7 512 687.3 506 697 503.7C706.7 501.3 716.3 502.7 726 503.2C735.7 503.7 745.3 503.3 755 506.8C764.7 510.3 774.3 517.7 784 517.8C793.7 518 803.3 511 813 508.8C822.7 506.7 832.3 509.3 842 508.8C851.7 508.3 861.3 504.7 871 503.5C880.7 502.3 890.3 503.7 895.2 504.3L900 505L900 601L895.2 601C890.3 601 880.7 601 871 601C861.3 601 851.7 601 842 601C832.3 601 822.7 601 813 601C803.3 601 793.7 601 784 601C774.3 601 764.7 601 755 601C745.3 601 735.7 601 726 601C716.3 601 706.7 601 697 601C687.3 601 677.7 601 668 601C658.3 601 648.7 601 639 601C629.3 601 619.7 601 610 601C600.3 601 590.7 601 581 601C571.3 601 561.7 601 552 601C542.3 601 532.7 601 523 601C513.3 601 503.7 601 494 601C484.3 601 474.7 601 464.8 601C455 601 445 601 435.2 601C425.3 601 415.7 601 406 601C396.3 601 386.7 601 377 601C367.3 601 357.7 601 348 601C338.3 601 328.7 601 319 601C309.3 601 299.7 601 290 601C280.3 601 270.7 601 261 601C251.3 601 241.7 601 232 601C222.3 601 212.7 601 203 601C193.3 601 183.7 601 174 601C164.3 601 154.7 601 145 601C135.3 601 125.7 601 116 601C106.3 601 96.7 601 87 601C77.3 601 67.7 601 58 601C48.3 601 38.7 601 29 601C19.3 601 9.7 601 4.8 601L0 601Z" fill="#F9FAFB" stroke-linecap="round" stroke-linejoin="miter"></path></svg>